<svg version="1.1" id="Layer_1" xmlns="http://www.w3.org/2000/svg" xmlns:xlink="http://www.w3.org/1999/xlink" x="0px" y="0px"
	 width="100%" viewBox="0 0 512 512" enable-background="new 0 0 512 512" xml:space="preserve">
<path fill="#E8E8E8" opacity="1.000000" stroke="none" 
	d="
M458.000000,513.000000 
	C324.309998,513.000000 190.620026,513.000000 56.465076,512.532166 
	C56.000134,358.411285 55.999069,204.758240 56.009613,51.105190 
	C56.009785,48.609039 56.151939,46.112892 56.679550,43.656567 
	C162.061966,43.715401 266.992676,43.734409 371.947571,44.238884 
	C371.983612,56.858097 372.105225,68.993340 371.939514,81.124664 
	C371.890839,84.688843 372.767639,86.112923 376.641602,86.088783 
	C403.733704,85.919991 430.827148,85.963837 457.945465,86.411430 
	C457.980530,228.922165 457.990265,370.961090 458.000000,513.000000 
M235.689606,208.053879 
	C228.112442,223.239273 220.657867,238.488388 212.830200,253.543518 
	C211.611389,255.887680 208.966919,257.905457 206.510208,259.121826 
	C193.409714,265.608032 179.791794,271.136566 167.071182,278.276245 
	C155.892288,284.550629 145.586349,292.532135 139.660446,304.516663 
	C133.660858,316.650208 140.122742,326.139069 153.634613,325.121490 
	C165.127258,324.256042 174.410004,318.448029 182.719559,310.950317 
	C198.139496,297.036865 210.987152,280.882843 223.322693,264.265076 
	C224.851913,262.204956 227.457794,260.402679 229.920227,259.661133 
	C252.440643,252.879135 275.417328,248.297852 298.806610,245.675140 
	C302.373535,245.275162 304.724579,246.149200 307.248810,248.420410 
	C321.950439,261.648438 338.994385,270.273529 358.541229,273.601013 
	C366.104767,274.888519 373.727417,275.439209 381.222443,272.705811 
	C392.452789,268.610199 394.841248,257.146790 385.390076,249.834961 
	C380.911285,246.369949 375.347168,243.901215 369.897034,242.170929 
	C349.855682,235.808365 329.170837,236.411545 308.480530,237.206863 
	C306.230713,237.293365 303.218292,236.218231 301.732666,234.602982 
	C287.647308,219.288696 276.642426,201.852676 267.687622,183.140091 
	C266.449677,180.553238 265.999054,177.002167 266.614044,174.212799 
	C270.215942,157.876419 272.917358,141.376648 271.760437,124.691971 
	C271.079651,114.874435 268.551666,105.097099 265.985840,95.534767 
	C264.677124,90.657433 260.897980,86.450653 255.220383,86.473946 
	C249.361603,86.497993 246.266891,90.940025 243.934723,95.792198 
	C243.575897,96.538757 243.108566,97.308052 243.026825,98.101379 
	C242.163071,106.483917 239.682800,115.134895 240.934647,123.201859 
	C242.982376,136.397339 247.563644,149.190720 250.847748,162.211349 
	C251.453156,164.611664 251.715759,167.563843 250.877151,169.786011 
	C246.121597,182.387283 240.983047,194.844040 235.689606,208.053879 
M280.227081,456.838623 
	C282.479187,454.890564 284.952515,453.144287 286.945221,450.959625 
	C295.648712,441.417633 297.608429,429.634918 296.753571,417.434692 
	C295.386261,397.921814 285.466217,386.389984 266.338684,383.547363 
	C254.741455,381.823853 242.783127,382.452637 230.983597,382.310913 
	C230.013794,382.299225 228.166702,384.484985 228.158844,385.659332 
	C227.992630,410.483551 228.064468,435.309235 227.987366,460.134338 
	C227.978531,462.979156 229.022659,463.935638 231.789764,463.887451 
	C238.785400,463.765533 245.806244,464.191406 252.776932,463.756287 
	C262.054596,463.177185 271.413788,462.471954 280.227081,456.838623 
M165.571381,463.854248 
	C168.403702,463.853546 171.244415,463.716034 174.066040,463.889465 
	C177.087250,464.075104 178.241989,462.915955 178.133011,459.856964 
	C177.955215,454.865051 178.086502,449.862183 178.087021,444.863922 
	C178.087799,437.491760 178.089828,437.515442 185.614594,436.832581 
	C188.095154,436.607452 190.571579,436.289795 193.032578,435.903961 
	C205.683502,433.920624 214.531357,424.185059 214.986771,411.796356 
	C215.596054,395.222046 209.946960,386.141510 195.148117,383.859100 
	C183.405624,382.048065 171.293701,382.612640 159.343735,382.179901 
	C156.204163,382.066193 156.106232,384.328186 156.107407,386.640381 
	C156.119659,410.798615 156.154999,434.957001 156.066620,459.114899 
	C156.054398,462.452972 157.029114,464.206238 160.610672,463.871857 
	C161.931961,463.748535 163.274521,463.853241 165.571381,463.854248 
M311.110352,458.246063 
	C310.467468,462.637756 312.342896,464.248566 316.736847,463.925446 
	C321.044098,463.608673 325.411682,464.072968 329.710144,463.701019 
	C330.884003,463.599457 332.558716,461.874664 332.850800,460.625305 
	C333.367859,458.413757 333.003693,455.995605 333.004120,453.663910 
	C333.005371,446.910522 333.004578,440.157135 333.004578,433.014130 
	C337.161743,433.014130 340.468597,433.014191 343.775452,433.014160 
	C357.904694,433.014160 357.826874,433.017853 357.141449,418.861267 
	C357.004608,416.035309 356.040741,415.048645 353.290161,415.109467 
	C347.796722,415.230988 342.289734,415.308624 336.808960,415.016998 
	C335.508911,414.947784 333.318329,413.454834 333.206604,412.434113 
	C332.779785,408.534088 333.034149,404.559509 333.034149,400.008881 
	C340.585419,400.008881 347.534882,399.873596 354.475128,400.067566 
	C357.802155,400.160614 359.461365,399.322113 359.140076,395.649841 
	C358.879761,392.674713 358.902466,389.644104 359.136261,386.664490 
	C359.409332,383.184174 358.120331,382.019989 354.604156,382.067383 
	C341.948578,382.237946 329.285706,382.305603 316.633301,382.041748 
	C312.121460,381.947632 310.997986,383.580505 311.029388,387.845184 
	C311.199707,410.994568 311.110413,434.145874 311.110352,458.246063 
z"/>
<path fill="#FFFFFF" opacity="1.000000" stroke="none" 
	d="
M458.468658,513.000000 
	C457.990265,370.961090 457.980530,228.922165 457.806366,86.120941 
	C431.292267,58.952534 404.930328,32.558594 378.625793,6.107586 
	C377.173584,4.647296 376.197632,2.713424 375.000000,0.999994 
	C420.971466,1.000000 466.942902,1.000000 512.951904,1.000000 
	C512.951904,171.666672 512.951904,342.333344 512.951904,513.000000 
	C494.914948,513.000000 476.926117,513.000000 458.468658,513.000000 
z"/>
<path fill="#FFFFFF" opacity="1.000000" stroke="none" 
	d="
M56.227837,43.616745 
	C56.151939,46.112892 56.009785,48.609039 56.009613,51.105190 
	C55.999069,204.758240 56.000134,358.411285 56.000061,512.532166 
	C37.679520,513.000000 19.359039,513.000000 1.044815,513.000000 
	C1.051071,342.333313 1.051071,171.666656 1.051071,1.000000 
	C19.089527,1.000000 37.076908,1.000000 55.606987,1.463617 
	C56.175735,15.823737 56.201786,29.720242 56.227837,43.616745 
z"/>
<path fill="#FB364A" opacity="1.000000" stroke="none" 
	d="
M56.679550,43.656567 
	C56.201786,29.720242 56.175735,15.823737 56.074844,1.463617 
	C161.020889,1.000000 266.041779,1.000000 371.570221,1.467333 
	C372.026306,15.874250 371.974854,29.813833 371.923401,43.753418 
	C266.992676,43.734409 162.061966,43.715401 56.679550,43.656567 
z"/>
<path fill="#D1D3D3" opacity="1.000000" stroke="none" 
	d="
M371.947571,44.238884 
	C371.974854,29.813833 372.026306,15.874250 372.038879,1.467333 
	C372.750000,1.000000 373.500000,1.000000 374.625000,0.999994 
	C376.197632,2.713424 377.173584,4.647296 378.625793,6.107586 
	C404.930328,32.558594 431.292267,58.952534 457.781067,85.649132 
	C430.827148,85.963837 403.733704,85.919991 376.641602,86.088783 
	C372.767639,86.112923 371.890839,84.688843 371.939514,81.124664 
	C372.105225,68.993340 371.983612,56.858097 371.947571,44.238884 
z"/>
<path fill="#FB384D" opacity="1.000000" stroke="none" 
	d="
M235.832230,207.701935 
	C240.983047,194.844040 246.121597,182.387283 250.877151,169.786011 
	C251.715759,167.563843 251.453156,164.611664 250.847748,162.211349 
	C247.563644,149.190720 242.982376,136.397339 240.934647,123.201859 
	C239.682800,115.134895 242.163071,106.483917 243.026825,98.101379 
	C243.108566,97.308052 243.575897,96.538757 243.934723,95.792198 
	C246.266891,90.940025 249.361603,86.497993 255.220383,86.473946 
	C260.897980,86.450653 264.677124,90.657433 265.985840,95.534767 
	C268.551666,105.097099 271.079651,114.874435 271.760437,124.691971 
	C272.917358,141.376648 270.215942,157.876419 266.614044,174.212799 
	C265.999054,177.002167 266.449677,180.553238 267.687622,183.140091 
	C276.642426,201.852676 287.647308,219.288696 301.732666,234.602982 
	C303.218292,236.218231 306.230713,237.293365 308.480530,237.206863 
	C329.170837,236.411545 349.855682,235.808365 369.897034,242.170929 
	C375.347168,243.901215 380.911285,246.369949 385.390076,249.834961 
	C394.841248,257.146790 392.452789,268.610199 381.222443,272.705811 
	C373.727417,275.439209 366.104767,274.888519 358.541229,273.601013 
	C338.994385,270.273529 321.950439,261.648438 307.248810,248.420410 
	C304.724579,246.149200 302.373535,245.275162 298.806610,245.675140 
	C275.417328,248.297852 252.440643,252.879135 229.920227,259.661133 
	C227.457794,260.402679 224.851913,262.204956 223.322693,264.265076 
	C210.987152,280.882843 198.139496,297.036865 182.719559,310.950317 
	C174.410004,318.448029 165.127258,324.256042 153.634613,325.121490 
	C140.122742,326.139069 133.660858,316.650208 139.660446,304.516663 
	C145.586349,292.532135 155.892288,284.550629 167.071182,278.276245 
	C179.791794,271.136566 193.409714,265.608032 206.510208,259.121826 
	C208.966919,257.905457 211.611389,255.887680 212.830200,253.543518 
	C220.657867,238.488388 228.112442,223.239273 235.832230,207.701935 
M273.881836,208.613983 
	C270.201721,202.381241 266.521637,196.148514 263.423340,190.901154 
	C254.010864,210.507904 244.507706,230.303528 235.324493,249.432693 
	C254.816605,245.703094 275.225098,241.798141 295.169525,237.981995 
	C288.292297,228.548523 281.258636,218.900497 273.881836,208.613983 
M165.146561,288.618622 
	C159.112534,294.710175 152.797562,300.560638 147.227905,307.050690 
	C145.698593,308.832733 145.197250,313.363159 146.412338,315.112701 
	C147.642624,316.884094 151.740707,317.709229 154.300720,317.277496 
	C158.619217,316.549133 163.336670,315.346161 166.767090,312.821808 
	C172.722366,308.439453 178.442902,303.408386 183.140533,297.722870 
	C190.447144,288.879700 196.814941,279.260895 203.580643,269.970825 
	C203.238785,269.651276 202.896942,269.331726 202.555099,269.012177 
	C189.713898,274.293152 177.061111,279.945160 165.146561,288.618622 
M324.865234,254.694351 
	C333.067932,258.213654 341.081696,262.305817 349.526367,265.091522 
	C358.013458,267.891235 366.947144,267.702942 375.524902,264.763580 
	C377.339661,264.141693 379.436829,262.441010 380.000916,260.765167 
	C380.355621,259.711395 378.382874,257.398438 376.949829,256.321899 
	C374.314117,254.341949 371.436768,252.567734 368.432068,251.213959 
	C350.873474,243.302979 332.275665,243.532639 313.607758,244.524124 
	C313.429840,244.533554 313.277191,245.017654 312.772247,245.823593 
	C316.583435,248.615906 320.432800,251.436157 324.865234,254.694351 
M247.905579,110.563217 
	C245.747803,125.866394 250.181396,140.000031 256.103973,154.083420 
	C258.384430,141.142151 260.149445,128.194565 260.804535,115.191048 
	C261.088745,109.549164 259.218384,103.764473 258.019409,98.109787 
	C257.766602,96.917450 256.078094,95.096840 255.214142,95.183884 
	C253.895264,95.316757 252.077408,96.611328 251.600281,97.848152 
	C250.118362,101.689659 249.168320,105.736343 247.905579,110.563217 
z"/>
<path fill="#A5AAAE" opacity="1.000000" stroke="none" 
	d="
M279.908783,457.016174 
	C271.413788,462.471954 262.054596,463.177185 252.776932,463.756287 
	C245.806244,464.191406 238.785400,463.765533 231.789764,463.887451 
	C229.022659,463.935638 227.978531,462.979156 227.987366,460.134338 
	C228.064468,435.309235 227.992630,410.483551 228.158844,385.659332 
	C228.166702,384.484985 230.013794,382.299225 230.983597,382.310913 
	C242.783127,382.452637 254.741455,381.823853 266.338684,383.547363 
	C285.466217,386.389984 295.386261,397.921814 296.753571,417.434692 
	C297.608429,429.634918 295.648712,441.417633 286.945221,450.959625 
	C284.952515,453.144287 282.479187,454.890564 279.908783,457.016174 
M273.998901,418.788910 
	C272.617981,403.989014 264.567688,397.761261 250.041092,400.826904 
	C250.041092,414.978546 250.009018,429.260773 250.130920,443.541687 
	C250.137360,444.296814 251.331818,445.512970 252.167496,445.716431 
	C259.941681,447.609131 269.973999,442.233398 272.138489,434.445343 
	C273.450134,429.725952 273.428314,424.635925 273.998901,418.788910 
z"/>
<path fill="#A5AAAE" opacity="1.000000" stroke="none" 
	d="
M165.089386,463.854095 
	C163.274521,463.853241 161.931961,463.748535 160.610672,463.871857 
	C157.029114,464.206238 156.054398,462.452972 156.066620,459.114899 
	C156.154999,434.957001 156.119659,410.798615 156.107407,386.640381 
	C156.106232,384.328186 156.204163,382.066193 159.343735,382.179901 
	C171.293701,382.612640 183.405624,382.048065 195.148117,383.859100 
	C209.946960,386.141510 215.596054,395.222046 214.986771,411.796356 
	C214.531357,424.185059 205.683502,433.920624 193.032578,435.903961 
	C190.571579,436.289795 188.095154,436.607452 185.614594,436.832581 
	C178.089828,437.515442 178.087799,437.491760 178.087021,444.863922 
	C178.086502,449.862183 177.955215,454.865051 178.133011,459.856964 
	C178.241989,462.915955 177.087250,464.075104 174.066040,463.889465 
	C171.244415,463.716034 168.403702,463.853546 165.089386,463.854095 
M192.977371,407.679688 
	C191.569244,401.594788 188.144135,399.262817 181.217758,400.082153 
	C175.189224,400.795288 179.175842,405.597595 178.133118,408.363678 
	C177.748810,409.383148 177.928360,410.690674 178.101044,411.828796 
	C178.452057,414.142242 178.944489,418.399536 179.429352,418.406677 
	C182.450378,418.451080 186.144638,418.398560 188.334869,416.713409 
	C190.634720,414.943970 191.498047,411.307404 192.977371,407.679688 
z"/>
<path fill="#A6ABAF" opacity="1.000000" stroke="none" 
	d="
M311.110413,457.771301 
	C311.110413,434.145874 311.199707,410.994568 311.029388,387.845184 
	C310.997986,383.580505 312.121460,381.947632 316.633301,382.041748 
	C329.285706,382.305603 341.948578,382.237946 354.604156,382.067383 
	C358.120331,382.019989 359.409332,383.184174 359.136261,386.664490 
	C358.902466,389.644104 358.879761,392.674713 359.140076,395.649841 
	C359.461365,399.322113 357.802155,400.160614 354.475128,400.067566 
	C347.534882,399.873596 340.585419,400.008881 333.034149,400.008881 
	C333.034149,404.559509 332.779785,408.534088 333.206604,412.434113 
	C333.318329,413.454834 335.508911,414.947784 336.808960,415.016998 
	C342.289734,415.308624 347.796722,415.230988 353.290161,415.109467 
	C356.040741,415.048645 357.004608,416.035309 357.141449,418.861267 
	C357.826874,433.017853 357.904694,433.014160 343.775452,433.014160 
	C340.468597,433.014191 337.161743,433.014130 333.004578,433.014130 
	C333.004578,440.157135 333.005371,446.910522 333.004120,453.663910 
	C333.003693,455.995605 333.367859,458.413757 332.850800,460.625305 
	C332.558716,461.874664 330.884003,463.599457 329.710144,463.701019 
	C325.411682,464.072968 321.044098,463.608673 316.736847,463.925446 
	C312.342896,464.248566 310.467468,462.637756 311.110413,457.771301 
z"/>
<path fill="#E8E5E6" opacity="1.000000" stroke="none" 
	d="
M274.053406,208.933228 
	C281.258636,218.900497 288.292297,228.548523 295.169525,237.981995 
	C275.225098,241.798141 254.816605,245.703094 235.324493,249.432693 
	C244.507706,230.303528 254.010864,210.507904 263.423340,190.901154 
	C266.521637,196.148514 270.201721,202.381241 274.053406,208.933228 
z"/>
<path fill="#E8E5E5" opacity="1.000000" stroke="none" 
	d="
M165.434113,288.401001 
	C177.061111,279.945160 189.713898,274.293152 202.555099,269.012177 
	C202.896942,269.331726 203.238785,269.651276 203.580643,269.970825 
	C196.814941,279.260895 190.447144,288.879700 183.140533,297.722870 
	C178.442902,303.408386 172.722366,308.439453 166.767090,312.821808 
	C163.336670,315.346161 158.619217,316.549133 154.300720,317.277496 
	C151.740707,317.709229 147.642624,316.884094 146.412338,315.112701 
	C145.197250,313.363159 145.698593,308.832733 147.227905,307.050690 
	C152.797562,300.560638 159.112534,294.710175 165.434113,288.401001 
z"/>
<path fill="#E8E4E4" opacity="1.000000" stroke="none" 
	d="
M324.573669,254.475388 
	C320.432800,251.436157 316.583435,248.615906 312.772247,245.823593 
	C313.277191,245.017654 313.429840,244.533554 313.607758,244.524124 
	C332.275665,243.532639 350.873474,243.302979 368.432068,251.213959 
	C371.436768,252.567734 374.314117,254.341949 376.949829,256.321899 
	C378.382874,257.398438 380.355621,259.711395 380.000916,260.765167 
	C379.436829,262.441010 377.339661,264.141693 375.524902,264.763580 
	C366.947144,267.702942 358.013458,267.891235 349.526367,265.091522 
	C341.081696,262.305817 333.067932,258.213654 324.573669,254.475388 
z"/>
<path fill="#E9E2E3" opacity="1.000000" stroke="none" 
	d="
M247.958740,110.133324 
	C249.168320,105.736343 250.118362,101.689659 251.600281,97.848152 
	C252.077408,96.611328 253.895264,95.316757 255.214142,95.183884 
	C256.078094,95.096840 257.766602,96.917450 258.019409,98.109787 
	C259.218384,103.764473 261.088745,109.549164 260.804535,115.191048 
	C260.149445,128.194565 258.384430,141.142151 256.103973,154.083420 
	C250.181396,140.000031 245.747803,125.866394 247.958740,110.133324 
z"/>
<path fill="#E7E7E7" opacity="1.000000" stroke="none" 
	d="
M274.002228,419.250671 
	C273.428314,424.635925 273.450134,429.725952 272.138489,434.445343 
	C269.973999,442.233398 259.941681,447.609131 252.167496,445.716431 
	C251.331818,445.512970 250.137360,444.296814 250.130920,443.541687 
	C250.009018,429.260773 250.041092,414.978546 250.041092,400.826904 
	C264.567688,397.761261 272.617981,403.989014 274.002228,419.250671 
z"/>
<path fill="#E5E5E5" opacity="1.000000" stroke="none" 
	d="
M192.983261,408.083252 
	C191.498047,411.307404 190.634720,414.943970 188.334869,416.713409 
	C186.144638,418.398560 182.450378,418.451080 179.429352,418.406677 
	C178.944489,418.399536 178.452057,414.142242 178.101044,411.828796 
	C177.928360,410.690674 177.748810,409.383148 178.133118,408.363678 
	C179.175842,405.597595 175.189224,400.795288 181.217758,400.082153 
	C188.144135,399.262817 191.569244,401.594788 192.983261,408.083252 
z"/>
</svg>